<?xml version="1.0" encoding="utf-8"?>
<!-- Generator: Adobe Illustrator 21.0.0, SVG Export Plug-In . SVG Version: 6.00 Build 0)  -->
<svg version="1.1" id="Layer_1" xmlns="http://www.w3.org/2000/svg" xmlns:xlink="http://www.w3.org/1999/xlink" x="0px" y="0px"
	 viewBox="0 0 623 176" enable-background="new 0 0 623 176" xml:space="preserve">
<path d="M190.2,85.7c0,8.5,2.6,15.5,7.9,21.1c5.7,5.9,12.4,8.8,20.1,8.8c8.2,0,15-2.9,20.4-8.6c5.4-5.7,8.2-12.9,8.2-21.5
	c0-7.4-2.6-13.8-7.7-19.4c-5.8-6.2-12.8-9.4-20.8-9.4c-7.6,0-14.1,2.7-19.4,8.2c-2.7,2.8-4.8,6-6.3,9.6
	C191,78.1,190.2,81.8,190.2,85.7 M178.4,85.5c0-11.2,4.1-20.9,12.2-28.9c7.7-7.6,16.9-11.4,27.7-11.4c11,0,20.4,3.9,28.3,11.6
	c7.9,7.8,11.9,17.3,11.9,28.6c0,11.2-3.5,20.5-10.4,28c-8.2,8.8-18.1,13.2-29.9,13.2c-11.8,0-21.7-4.5-29.7-13.5
	C181.8,105.8,178.4,96.5,178.4,85.5z M176.9,125.3h-37.1V46.8h11.4v67.6h25.7V125.3z M110.4,91.4l-11-29.8L88.1,91.4H110.4z
	 M84,102.4l-8.9,22.8l-11.9,0l30.7-78.4h11l30.7,78.4h-12.5l-8.6-22.8H84z M16.4,125.3H5.1V46.8h11.4v33.3h32V46.8h11.4v78.4H48.4
	v-34h-32V125.3z"/>
<path d="M591.5,97v28.2h-11.4V96.4l-24-49.5h12.7l17.2,37.8l17.2-37.8h12.6L591.5,97z M543.4,125.3H532V57.4h-14.7V46.8H558v10.6
	h-14.7V125.3z M509.6,125.3h-11.4V46.8h11.4V125.3z M489.1,125.3H452V46.8h11.4v67.6h25.7V125.3z M422.6,91.4l-11-29.8l-11.3,29.8
	H422.6z M396.2,102.4l-8.9,22.8l-11.9,0l30.7-78.4h11l30.7,78.4h-12.5l-8.6-22.8H396.2z M371.8,125.3h-40.7V46.8h40.7v10.5h-29.3
	v23.4h29.3V91h-29.3v23.5h29.3V125.3z M280.1,87.5h5.8c15.5,0,23.3-5.1,23.3-15.4c0-5.1-1.7-8.9-5-11.2c-3.3-2.3-8.5-3.5-15.6-3.5
	h-8.5V87.5z M280.1,125.3h-11.4V46.8h22.6c9.4,0,16.6,2.2,21.6,6.6c5,4.4,7.4,10.6,7.4,18.8c0,6.5-2.1,11.9-6.2,16.3
	c-4.1,4.4-9.5,6.6-16.1,6.6l22.2,30.1l-14.2,0l-26-36.4V125.3z"/>
<path d="M65.7,29.7c-0.6,1.8,1.2,3.2,5.4,4.2c3.7,0.8,7.4,0.6,11.1-0.6l50.7-18.5l48.2,19.6c3,1.3,6.7,1.6,11,0.9
	c1.2-0.2,2.3-0.5,3.3-1c3.2-1.2,3.9-2.8,2.1-4.6c-0.4-0.5-1.2-0.9-2.4-1.4l-54.8-22c-3.2-1.3-6.8-1.6-10.6-1
	c-1.2,0.2-2.2,0.5-2.9,0.9L69.4,26.9C67,27.8,65.8,28.7,65.7,29.7"/>
<path d="M254.8,138.6h-1.6l3.6-6h2.6L254.8,138.6z M245.9,166.2l-2.6,0l9.7-25h3l9.7,25l-2.6,0l-3-7.8h-11.1L245.9,166.2z
	 M259.1,156.1l-4.7-12.6l-4.7,12.6H259.1z M229.9,158.5v7.7h-2.4v-25h2.4v13.9l11.6-13.9h2.9l-10.1,12.1l9.9,12.9h-3l-8.5-11.1
	L229.9,158.5z M209.8,159.1h2.4c0,1.5,0.4,2.8,1.3,3.7c0.9,0.9,2,1.4,3.3,1.4c1.5,0,2.6-0.5,3.5-1.4c0.8-0.9,1.3-2.1,1.3-3.7
	c0-1.9-0.8-3.3-2.5-4.1c-0.5-0.3-1.7-0.7-3.5-1.3c-1.8-0.6-3.1-1.4-3.9-2.3c-0.8-0.9-1.2-2.2-1.2-3.9c0-2,0.6-3.6,1.8-4.9
	c1.2-1.3,2.8-1.9,4.8-1.9c1.9,0,3.4,0.6,4.6,1.7c1.2,1.2,1.7,2.8,1.7,4.9h-2.3c-0.1-1.4-0.5-2.4-1.2-3.2c-0.7-0.7-1.6-1.1-2.8-1.1
	c-1.3,0-2.3,0.4-3.1,1.2c-0.8,0.8-1.2,1.8-1.2,3.1c0,1.2,0.5,2.2,1.5,3c0.5,0.4,1.2,0.7,2.1,1c1,0.3,1.9,0.6,2.9,1
	c1.6,0.6,2.8,1.4,3.5,2.4c0.7,1,1.1,2.2,1.1,3.9c0,2.4-0.7,4.4-2,5.9c-1.3,1.5-3.1,2.2-5.3,2.2c-2.1,0-3.7-0.7-5-2.1
	C210.4,163.2,209.8,161.4,209.8,159.1z M204.3,163.3l-0.3-22.1h2.4v25h-3l-13.7-22.1l0.3,22.1h-2.4v-25h3L204.3,163.3z M172.4,152.4
	H183v2.5h-10.5v8.9H183v2.4h-13v-25h13v2.5h-10.5V152.4z M147.4,141.2h2.5l7.9,21.4l7.9-21.4h2.5l-9.4,25h-1.9L147.4,141.2z
	 M124,153.6c0,3.1,1,5.6,3,7.7c2,2.1,4.4,3.1,7.3,3.1c2.8,0,5.2-1,7.2-3.1c2-2.1,2.9-4.7,2.9-7.7c0-2.8-1-5.3-3-7.3
	c-2-2.1-4.4-3.1-7.3-3.1c-2.4,0-4.5,0.8-6.3,2.3c-1.2,1-2.1,2.3-2.8,3.7C124.3,150.5,124,152,124,153.6z M121.4,153.5
	c0-3.6,1.3-6.7,3.9-9.2c2.5-2.4,5.4-3.6,8.8-3.6c3.5,0,6.5,1.2,9,3.7c2.5,2.5,3.8,5.5,3.8,9.1c0,3.5-1.1,6.5-3.3,8.9
	c-2.6,2.8-5.7,4.2-9.5,4.2c-3.6,0-6.6-1.3-9.1-3.8C122.6,160.4,121.4,157.3,121.4,153.5z M119.4,166.2h-11.3v-25h2.5v22.6h8.8V166.2
	z M90.5,159.1h2.4c0,1.5,0.4,2.8,1.3,3.7c0.9,0.9,2,1.4,3.3,1.4c1.5,0,2.6-0.5,3.5-1.4c0.8-0.9,1.3-2.1,1.3-3.7
	c0-1.9-0.8-3.3-2.5-4.1c-0.5-0.3-1.7-0.7-3.5-1.3c-1.8-0.6-3.1-1.4-3.9-2.3c-0.8-0.9-1.2-2.2-1.2-3.9c0-2,0.6-3.6,1.8-4.9
	c1.2-1.3,2.8-1.9,4.8-1.9c1.9,0,3.4,0.6,4.6,1.7c1.2,1.2,1.7,2.8,1.7,4.9h-2.3c-0.1-1.4-0.5-2.4-1.2-3.2c-0.7-0.7-1.6-1.1-2.8-1.1
	c-1.3,0-2.3,0.4-3.1,1.2c-0.8,0.8-1.2,1.8-1.2,3.1c0,1.2,0.5,2.2,1.5,3c0.5,0.4,1.2,0.7,2.1,1c1,0.3,1.9,0.6,2.9,1
	c1.6,0.6,2.8,1.4,3.5,2.4c0.7,1,1.1,2.2,1.1,3.9c0,2.4-0.7,4.4-2,5.9c-1.3,1.5-3.1,2.2-5.3,2.2c-2.1,0-3.7-0.7-5-2.1
	C91.1,163.2,90.5,161.4,90.5,159.1z M65.4,153.6c0,3.1,1,5.6,3,7.7c2,2.1,4.4,3.1,7.3,3.1c2.8,0,5.2-1,7.2-3.1
	c2-2.1,2.9-4.7,2.9-7.7c0-2.8-1-5.3-3-7.3c-2-2.1-4.4-3.1-7.3-3.1c-2.4,0-4.5,0.8-6.3,2.3c-1.2,1-2.1,2.3-2.8,3.7
	C65.7,150.5,65.4,152,65.4,153.6z M62.8,153.5c0-3.6,1.3-6.7,3.9-9.2c2.5-2.4,5.4-3.6,8.8-3.6c3.5,0,6.5,1.2,9,3.7
	c2.5,2.5,3.8,5.5,3.8,9.1c0,3.5-1.1,6.5-3.3,8.9c-2.6,2.8-5.7,4.2-9.5,4.2c-3.6,0-6.6-1.3-9.1-3.8C64,160.4,62.8,157.3,62.8,153.5z
	 M60.8,166.2H49.6v-25H52v22.6h8.8V166.2z M34.4,152.4h10.5v2.5H34.4v8.9h10.5v2.4h-13v-25h13v2.5H34.4V152.4z M25.4,147.7
	c-1.1-1.5-2.2-2.6-3.6-3.3c-1.5-0.8-3.1-1.2-5-1.2c-2.8,0-5.2,1-7.2,3.1c-2,2.1-2.9,4.5-2.9,7.3c0,3.1,1,5.6,3,7.7
	c2,2.1,4.4,3.1,7.1,3.1c3.5,0,6.3-1.4,8.3-4.3h2.9c-1.2,2.1-2.7,3.8-4.6,4.9c-1.9,1.2-4.1,1.7-6.5,1.7c-3.7,0-6.8-1.3-9.2-3.8
	c-2.4-2.5-3.7-5.6-3.7-9.4c0-3.6,1.3-6.7,3.9-9.2c2.4-2.4,5.4-3.6,8.8-3.6c2.5,0,4.8,0.6,6.7,1.8c2,1.2,3.5,2.9,4.7,5.2H25.4z"/>
<path d="M593.8,166.2l-2.6,0l9.7-25h3l9.7,25l-2.6,0l-3-7.8h-11.1L593.8,166.2z M607,156.1l-4.7-12.6l-4.7,12.6H607z M589.7,166.2
	h-2.5v-25h2.5V166.2z M569.8,143.6v22.6h-2.4v-25h6.7c1.4,0,2.5,0.1,3.4,0.3c0.9,0.2,1.8,0.6,2.6,1.2c1,0.7,1.8,1.6,2.4,2.8
	c0.6,1.2,0.9,2.4,0.9,3.7c0,2-0.6,3.7-1.7,5.1c-1.2,1.4-2.6,2.2-4.3,2.2l6.1,9.8h-2.9l-7.4-12.1h2.4c1.6,0,2.9-0.5,3.9-1.4
	c1-0.9,1.5-2.1,1.5-3.6c0-1.8-0.6-3.2-1.8-4.3c-0.6-0.5-1.3-0.9-2.2-1c-0.8-0.1-1.9-0.2-3.3-0.2H569.8z M555.1,138.6h-1.6l3.6-6h2.6
	L555.1,138.6z M546.1,166.2l-2.6,0l9.7-25h3l9.7,25l-2.6,0l-3-7.8h-11.1L546.1,166.2z M559.4,156.1l-4.7-12.6l-4.7,12.6H559.4z
	 M543.5,166.2h-11.3v-25h2.5v22.6h8.8V166.2z M517,152.4h10.5v2.5H517v8.9h10.5v2.4h-13v-25h13v2.5H517V152.4z M508,147.7
	c-1.1-1.5-2.2-2.6-3.6-3.3c-1.5-0.8-3.1-1.2-5-1.2c-2.8,0-5.2,1-7.2,3.1c-2,2.1-2.9,4.5-2.9,7.3c0,3.1,1,5.6,3,7.7
	c2,2.1,4.4,3.1,7.1,3.1c3.5,0,6.3-1.4,8.3-4.3h2.9c-1.2,2.1-2.7,3.8-4.6,4.9c-1.9,1.2-4.1,1.7-6.5,1.7c-3.7,0-6.8-1.3-9.2-3.8
	c-2.4-2.5-3.7-5.6-3.7-9.4c0-3.6,1.3-6.7,3.9-9.2c2.4-2.4,5.4-3.6,8.8-3.6c2.5,0,4.8,0.6,6.7,1.8c2,1.2,3.5,2.9,4.7,5.2H508z
	 M481.2,163.3l-0.3-22.1h2.4v25h-3l-13.7-22.1l0.3,22.1h-2.4v-25h3L481.2,163.3z M442.9,166.2l-2.6,0l9.7-25h3l9.7,25l-2.6,0l-3-7.8
	h-11.1L442.9,166.2z M456.2,156.1l-4.7-12.6l-4.7,12.6H456.2z M427,158.5v7.7h-2.4v-25h2.4v13.9l11.6-13.9h2.9l-10.1,12.1l9.9,12.9
	h-3l-8.5-11.1L427,158.5z M402,138.6h-1.6l3.6-6h2.6L402,138.6z M393.1,166.2l-2.6,0l9.7-25h3l9.7,25l-2.6,0l-3-7.8H396L393.1,166.2
	z M406.3,156.1l-4.7-12.6l-4.7,12.6H406.3z M386.8,163.3l-0.3-22.1h2.4v25h-3l-13.7-22.1l0.3,22.1h-2.4v-25h3L386.8,163.3z
	 M362.6,166.2h-2.5v-22.6h-5v-2.5h12.5v2.5h-5V166.2z M352.6,166.2h-2.5v-25h2.5V166.2z M346.9,166.2h-11.3v-25h2.5v22.6h8.8V166.2z
	 M314.1,166.2l-2.6,0l9.7-25h3l9.7,25l-2.6,0l-3-7.8H317L314.1,166.2z M327.3,156.1l-4.7-12.6l-4.7,12.6H327.3z M299.4,152.4H310
	v2.5h-10.5v8.9H310v2.4h-13v-25h13v2.5h-10.5V152.4z M279.5,143.6v22.6H277v-25h6.7c1.4,0,2.5,0.1,3.4,0.3c0.9,0.2,1.8,0.6,2.6,1.2
	c1,0.7,1.8,1.6,2.4,2.8c0.6,1.2,0.9,2.4,0.9,3.7c0,2-0.6,3.7-1.7,5.1c-1.2,1.4-2.6,2.2-4.3,2.2l6.1,9.8h-2.9l-7.4-12.1h2.4
	c1.6,0,2.9-0.5,3.9-1.4c1-0.9,1.5-2.1,1.5-3.6c0-1.8-0.6-3.2-1.8-4.3c-0.6-0.5-1.3-0.9-2.2-1c-0.8-0.1-1.9-0.2-3.3-0.2H279.5z"/>
</svg>
